
            <svg xmlns="http://www.w3.org/2000/svg" xmlns:cc="http://creativecommons.org/ns#" xmlns:rdf="http://www.w3.org/1999/02/22-rdf-syntax-ns#" version="1.1" width="190.26565551757812" height="82.50779724121094">
              <defs>
                <style type="text/css">svg{background-color:#fff}text,tspan{font:12px Arial}path{fill-opacity:0;stroke-width:2px;stroke:#000}circle{fill:#6b6659;stroke-width:2px;stroke:#000}.anchor text,.any-character text{fill:#fff}.anchor rect,.any-character rect{fill:#6b6659}.escape text,.charset-escape text,.literal text{fill:#000}.escape rect,.charset-escape rect{fill:#bada55}.literal rect{fill:#dae9e5}.charset .charset-box{fill:#cbcbba}.subexp .subexp-label tspan,.charset .charset-label tspan,.match-fragment .repeat-label tspan{font-size:10px}.repeat-label{cursor:help}.subexp .subexp-label tspan,.charset .charset-label tspan{dominant-baseline:text-after-edge}.subexp .subexp-box{stroke:#908c83;stroke-dasharray:6,2;stroke-width:2px;fill-opacity:0}.quote{fill:#908c83}
          </style>
              </defs>
              <metadata>
                <rdf:rdf>
                  <cc:license rdf:about="http://creativecommons.org/licenses/by/3.0/">
                    <cc:permits rdf:resource="http://creativecommons.org/ns#Reproduction"></cc:permits>
                    <cc:permits rdf:resource="http://creativecommons.org/ns#Distribution"></cc:permits>
                    <cc:requires rdf:resource="http://creativecommons.org/ns#Notice"></cc:requires>
                    <cc:requires rdf:resource="http://creativecommons.org/ns#Attribution"></cc:requires>
                    <cc:permits rdf:resource="http://creativecommons.org/ns#DerivativeWorks"></cc:permits>
                  </cc:license>
                </rdf:rdf>
              </metadata>
            <desc>Created with Snap</desc><g transform="matrix(1,0,0,1,15,10)" class="root"><g transform="matrix(1,0,0,1,10,0)" class="regexp match"><path d="M73.265625,27.75H93.2656"></path><g class="match-fragment charset" transform="matrix(1,0,0,1,0,0)"><rect rx="3" ry="3" class="charset-box" transform="matrix(1,0,0,1,0,11)" width="73.265625" height="33.5"></rect><text x="0" y="0" transform="matrix(1,0,0,1,0,11)" class="charset-label"><tspan>One of:</tspan></text><g transform="matrix(1,0,0,1,5,16)"><g transform="matrix(1,0,0,1,0,0)" class="charset-range"><text x="0" y="0" transform="matrix(1,0,0,1,29.6406,16)">-</text><g class="literal" transform="matrix(1,0,0,1,0,0)"><g class="label"><rect width="24.640625" height="23.5" rx="3" ry="3"></rect><text x="0" y="0" transform="matrix(1,0,0,1,5,16.75)"><tspan class="quote">“</tspan><tspan>1</tspan><tspan class="quote">”</tspan></text></g></g><g class="literal" transform="matrix(1,0,0,1,38.625,0)"><g class="label"><rect width="24.640625" height="23.5" rx="3" ry="3"></rect><text x="0" y="0" transform="matrix(1,0,0,1,5,16.75)"><tspan class="quote">“</tspan><tspan>9</tspan><tspan class="quote">”</tspan></text></g></g></g></g></g><g class="match-fragment" transform="matrix(1,0,0,1,83.2656,15.9922)"><path d="M10,11.7578125q-10,0 -10,10v1.7578125q0,10 10,10h32q10,0 10,-10v-1.7578125q0,-10 -10,-10M52,26.7578125l5,-5m-5,5l-5,-5"></path><g transform="matrix(1,0,0,1,10,0)" class="escape"><g class="label"><rect width="32" height="23.515625" rx="3" ry="3"></rect><text x="0" y="0" transform="matrix(1,0,0,1,5,16.7578)"><tspan>digit</tspan></text></g></g><text x="0" y="0" transform="matrix(1,0,0,1,24.7813,44.5156)" class="repeat-label"><tspan>4 times</tspan><title><text x="0" y="0">repeats 5 times in total</text></title></text></g></g><path d="M10,27.75H0M135.2656,27.75H160.26565551757812"></path><circle cx="0" cy="27.75" r="5"></circle><circle cx="160.26565551757812" cy="27.75" r="5"></circle></g></svg>
          